<?xml version="1.0" encoding="utf-8"?><svg xmlns="http://www.w3.org/2000/svg" xmlns:xlink="http://www.w3.org/1999/xlink"><symbol viewBox="0 0 496 496" id="cloud" xmlns="http://www.w3.org/2000/svg"><path d="M48 160h32v16H48z"/><path d="M472 128c13.2 0 24-10.8 24-24V24c0-13.2-10.8-24-24-24H360c-13.2 0-24 10.8-24 24v80c0 13.2 10.8 24 24 24h24v16h-16v16h40v80h-33c-6.4-6.2-14.2-11-23-13.6 0-.8.1-1.6.1-2.4 0-35.3-28.7-64-64-64-21.9 0-42.2 11.4-53.9 29.6-8.2-3.7-17.1-5.6-26.1-5.6-26.6 0-50.5 16.7-59.8 41.3-6.1 1.3-11.7 3.6-16.9 6.7H72v-24h32c13.2 0 24-10.8 24-24V24c0-13.2-10.8-24-24-24H24C10.8 0 0 10.8 0 24v160c0 13.2 10.8 24 24 24h32v40h58.3c-3.4 4.9-6 10.2-7.8 16H72v88H40c-13.2 0-24 10.8-24 24v72H0v24c0 13.2 10.8 24 24 24h128c13.2 0 24-10.8 24-24v-24h-16v-72c0-13.2-10.8-24-24-24H88v-72h16c0 30.9 25.1 56 56 56h176c28.2 0 51.5-20.9 55.4-48H424v64h-56v144h128V352h-56v-80h-48.7c-.8-5.6-2.6-11-5-16H424v-96h40v-16h-16v-16h24zm-360 0H16V48h96v80zM24 16h80c4.4 0 8 3.6 8 8v8H16v-8c0-4.4 3.6-8 8-8zm-8 168v-40h96v40c0 4.4-3.6 8-8 8H24c-4.4 0-8-3.6-8-8zm144 288c0 4.4-3.6 8-8 8H24c-4.4 0-8-3.6-8-8v-8h144v8zm-16-96v72H32v-72c0-4.4 3.6-8 8-8h96c4.4 0 8 3.6 8 8zm240 104v-48h96v48h-96zm96-64h-96v-48h96v48zm-144-96H160c-22.1 0-40-17.9-40-40 0-20.2 15.1-37.3 35.2-39.7l5.3-.6 1.5-5.1c5.9-20.4 24.9-34.6 46.1-34.6 8.8 0 17.5 2.5 25.1 7.2l7.6 4.7 3.8-8.1c7.9-16.9 24.9-27.7 43.4-27.7 26.5 0 48 21.5 48 48 0 2.2-.2 4.6-.6 7.4l-1.2 7.9 7.9 1.2c19.3 3 33.9 19.9 33.9 39.5 0 22-17.9 39.9-40 39.9zm24-304h112c4.4 0 8 3.6 8 8v56H352V24c0-4.4 3.6-8 8-8zm-8 88v-8h128v8c0 4.4-3.6 8-8 8H360c-4.4 0-8-3.6-8-8zm80 40h-32v-16h32v16zm0 0"/><path d="M400 384h16v16h-16zm48 64h16v16h-16zm-16-64h32v16h-32zm-32 64h32v16h-32z"/></symbol><symbol viewBox="-33 157.284 480 479.716" id="diversify" xmlns="http://www.w3.org/2000/svg"><path d="M213.93 161a8.321 8.321 0 0 0-13.86 0l-69.281 120a8 8 0 0 0 6.929 12h138.563a8 8 0 0 0 6.929-12l-69.28-120zm-62.356 116L207 181l55.426 96H151.574zM439 493H311a7.998 7.998 0 0 0-8 7.996V629a7.998 7.998 0 0 0 7.996 8H439a7.998 7.998 0 0 0 8-7.996V501a7.998 7.998 0 0 0-7.996-8H439zm-8 128H319V509h112v112zM39 493c-39.765 0-72 32.235-72 72 0 39.764 32.235 72 72 72s72-32.236 72-72c-.045-39.746-32.254-71.955-72-72zm0 128c-30.928 0-56-25.072-56-56s25.072-56 56-56 56 25.072 56 56c-.036 30.913-25.087 55.964-56 56zm91.336-375.32l-6.672-14.547C29.627 274.331-16.009 382.062 18.383 479.664l15.086-5.328c-31.635-89.798 10.353-188.91 96.867-228.656zM207 597a182.724 182.724 0 0 1-73.648-15.328l-6.406 14.656a200.624 200.624 0 0 0 155.055 2.133l-6-14.828A183.137 183.137 0 0 1 207 597zm184-184a184.156 184.156 0 0 1-7.949 53.672l15.305 4.656c27.431-90.311-11.918-187.518-94.447-233.317l.002-.003a188.803 188.803 0 0 0-5.254-2.813l-7.312 14.234c1.609.828 3.204 1.682 4.785 2.562l3.89-6.991-3.883 6.992C354.648 284.455 390.96 346.087 391 413z"/></symbol><symbol viewBox="0 0 336 440" id="duplicate" xmlns="http://www.w3.org/2000/svg"><path d="M0 104v8h16V96H8c-4.4 0-8 3.6-8 8zm0 155.8h16v16.4H0v-16.4zm0-32.9h16v16.4H0v-16.4zm0 98.6h16v16.4H0v-16.4zm0-32.9h16V309H0v-16.4zm0-98.5h16v16.4H0v-16.4zm0 197.1h16v16.4H0v-16.4zm0-229.9h16v16.4H0v-16.4zm0 197h16v16.4H0v-16.4zm0-229.9h16v16.4H0v-16.4zM0 432c0 4.4 3.6 8 8 8h8v-16H0v8zm64-8h16v16H64v-16zm32 0h16v16H96v-16zm64 0h16v16h-16v-16zm32 0h16v16h-16v-16zm-64 0h16v16h-16v-16zm-96 0h16v16H32v-16zm192 16h8c4.4 0 8-3.6 8-8v-8h-16v16zm0-40h16v16h-16v-16zM24 96h16v16H24V96zm311.5-2.6c-.1-.3-.2-.5-.3-.8-.4-.8-.9-1.6-1.5-2.3l-88-88c-.7-.6-1.4-1.2-2.3-1.5-.2-.1-.4-.2-.7-.2-.7-.3-1.5-.4-2.2-.4-.2-.1-.3-.2-.5-.2H104c-4.4 0-8 3.6-8 8v40H56c-4.4 0-8 3.6-8 8v328c0 4.4 3.6 8 8 8h224c4.4 0 8-3.6 8-8v-40h40c4.4 0 8-3.6 8-8V96c0-.2-.1-.3-.1-.5 0-.7-.2-1.4-.4-2.1zM248 27.3L308.7 88H248V27.3zM272 376H64V64h32v272c0 4.4 3.6 8 8 8h168v32zm48-48H112V16h120v80c0 4.4 3.6 8 8 8h80v224z"/><path d="M160 192c0 30.9 25.1 56 56 56s56-25.1 56-56-25.1-56-56-56-56 25.1-56 56zm96 0c0 22.1-17.9 40-40 40s-40-17.9-40-40 17.9-40 40-40 40 17.9 40 40z"/><path d="M208 168v16h-16v16h16v16h16v-16h16v-16h-16v-16h-16z"/></symbol><symbol viewBox="0 0 388 388" id="email" xmlns="http://www.w3.org/2000/svg"><path d="M331.18 56.82C294.535 20.18 245.82 0 194 0S93.465 20.18 56.82 56.82C20.18 93.465 0 142.18 0 194s20.18 100.535 56.82 137.18C93.465 367.82 142.18 388 194 388c26.184 0 51.594-5.133 75.52-15.25l-9.352-22.105C239.219 359.508 216.957 364 194 364c-93.738 0-170-76.262-170-170S100.262 24 194 24s170 76.262 170 170c0 41.059-25.227 59.758-48.668 59.758-23.437 0-48.664-18.699-48.664-59.758 0-40.07-32.598-72.668-72.668-72.668S121.332 153.934 121.332 194 153.93 266.668 194 266.668c23.723 0 44.828-11.43 58.098-29.07 3.398 6.863 7.675 13.07 12.832 18.492 13.289 13.972 31.191 21.668 50.402 21.668 19.215 0 37.113-7.696 50.406-21.668C380.301 240.777 388 219.305 388 194c0-51.82-20.18-100.535-56.82-137.18zM194 242.668c-26.836 0-48.668-21.832-48.668-48.668s21.832-48.668 48.668-48.668 48.668 21.832 48.668 48.668-21.832 48.668-48.668 48.668zm0 0"/></symbol><symbol viewBox="0 0 512 512" id="facebook" xmlns="http://www.w3.org/2000/svg"><path d="M222.892 388h51.491a8 8 0 0 0 8-8V264.093h26.751a8 8 0 0 0 7.958-7.18l4.51-43.772a7.997 7.997 0 0 0-2.019-6.179 7.997 7.997 0 0 0-5.939-2.641h-31.261v-17.73c0-3.662 1.159-3.936 2.928-3.936h27.682a8 8 0 0 0 8-8v-42.5a8 8 0 0 0-7.968-8L274.848 124c-26.752 0-41.029 11.77-48.295 21.643-10.146 13.787-11.661 29.941-11.661 38.343v20.334h-16.489a8 8 0 0 0-8 8v43.772a8 8 0 0 0 8 8h16.489V380a8 8 0 0 0 8 8zm-16.49-139.907v-27.772h16.489a8 8 0 0 0 8-8v-28.334c0-5.185.833-18.376 8.547-28.86 7.386-10.037 19.3-15.126 35.376-15.126l30.177.122v26.533h-19.682c-9.421 0-18.928 6.164-18.928 19.936v25.73a8 8 0 0 0 8 8h30.395l-2.862 27.772h-27.533a8 8 0 0 0-8 8V372H230.89V256.093a8 8 0 0 0-8-8h-16.488z"/><path d="M437.022 74.984C388.67 26.63 324.381 0 256 0 187.624 0 123.338 26.63 74.984 74.984S0 187.624 0 256c0 68.388 26.63 132.678 74.984 181.028C123.335 485.375 187.621 512 256 512c68.385 0 132.673-26.625 181.021-74.972C485.372 388.679 512 324.389 512 256c0-68.378-26.628-132.664-74.978-181.016zm-11.314 350.73C380.381 471.039 320.111 496 256 496c-64.106 0-124.374-24.961-169.703-70.286C40.965 380.386 16 320.113 16 256c0-64.102 24.965-124.37 70.297-169.702C131.63 40.965 191.898 16 256 16c64.108 0 124.378 24.965 169.708 70.297C471.037 131.628 496 191.896 496 256c0 64.115-24.963 124.387-70.292 169.714z"/><path d="M430.038 114.969a7.998 7.998 0 0 0-11.253-1.172 7.999 7.999 0 0 0-1.172 11.252C447.526 161.919 464 208.425 464 256c0 55.567-21.635 107.803-60.919 147.086C363.797 442.367 311.563 464 256 464c-51.26 0-100.505-18.807-138.663-52.956a8 8 0 0 0-10.67 11.922C147.763 459.745 200.797 480 256 480c59.837 0 116.089-23.297 158.394-65.601C456.701 372.094 480 315.84 480 256c0-51.234-17.744-101.319-49.962-141.031zM48 256c0-114.691 93.309-208 208-208 51.26 0 100.504 18.808 138.662 52.959a8 8 0 0 0 11.296-.625 8 8 0 0 0-.625-11.296C364.237 52.256 311.203 32 256 32c-59.829 0-116.079 23.301-158.389 65.611C55.301 139.92 32 196.171 32 256c0 51.24 17.744 101.328 49.963 141.038a7.983 7.983 0 0 0 6.217 2.96 8 8 0 0 0 6.208-13.041C64.474 350.088 48 303.58 48 256z"/></symbol><symbol viewBox="0 0 160 64" id="gepard-logo" xmlns="http://www.w3.org/2000/svg"><path d="M66.1 29.156c.4-.9.9-1.7 1.6-2.4.7-.7 1.5-1.2 2.4-1.6.9-.4 1.9-.6 2.9-.6s2 .2 2.9.6c.9.4 1.7.9 2.3 1.6.7.7 1.2 1.5 1.6 2.4.4.9.6 1.9.6 2.9s-.2 2-.6 2.9c-.4.9-.9 1.7-1.6 2.4-.7.7-1.4 1.2-2.3 1.6-.9.3-1.9.5-2.9.5s-2-.2-2.9-.6c-.9-.4-1.7-.9-2.4-1.6-.7-.7-1.2-1.5-1.6-2.4-.4-.9-.6-1.9-.6-2.9s.2-1.9.6-2.8zm-.6 32.3v-20.2c2.1 1.7 4.6 2.6 7.4 2.6 3.3 0 6.1-1.2 8.4-3.5 2.3-2.3 3.5-5.1 3.5-8.4 0-3.3-1.2-6.1-3.5-8.4-2.3-2.3-5.1-3.5-8.4-3.5-3.2 0-6 1.2-8.4 3.5-2.3 2.3-3.5 5.1-3.5 8.4v29.5h4.5zm87.1-26.6c-.4.9-.9 1.7-1.6 2.4-.7.7-1.5 1.2-2.4 1.6-.9.4-1.9.6-2.9.6s-2-.2-2.9-.6c-.9-.4-1.7-.9-2.3-1.6-.7-.7-1.2-1.5-1.6-2.4-.4-.9-.6-1.9-.6-2.9s.2-2 .6-2.9c.4-.9.9-1.7 1.6-2.4.7-.7 1.4-1.2 2.3-1.6.9-.4 1.9-.6 2.9-.6s2 .2 2.9.6c.9.4 1.7.9 2.4 1.6.7.7 1.2 1.5 1.6 2.4.4.9.6 1.9.6 2.9 0 1.1-.2 2-.6 2.9zm.6-32.3v20.2c-2.1-1.7-4.6-2.6-7.4-2.6-3.3 0-6.1 1.2-8.4 3.5-2.3 2.3-3.5 5.1-3.5 8.4 0 3.3 1.2 6.1 3.5 8.4 2.3 2.3 5.1 3.5 8.4 3.5 3.2 0 6-1.2 8.4-3.5 2.3-2.3 3.5-5.1 3.5-8.4v-29.5h-4.5zm-32.9 19.8v.4c1.1-.8 2.2-1.5 3.4-2 1.2-.5 2.6-.7 4-.7.6 0 1.3 0 2 .1s1.4.2 2 .5c.6.2 1.1.5 1.5.9.4.4.6.9.6 1.5 0 .3-.1.6-.2.9-.1.3-.3.5-.5.7-.2.2-.4.4-.7.5-.3.1-.6.2-.9.2-.3 0-.6-.1-.9-.2-.9-.4-1.9-.5-2.9-.5s-2 .2-2.9.6c-.9.4-1.7.9-2.4 1.6-.7.7-1.2 1.5-1.6 2.4-.4.9-.6 1.9-.6 2.9v9.5c0 .6-.2 1.1-.6 1.6-.4.4-.9.6-1.6.6-.6 0-1.1-.2-1.6-.6-.4-.4-.6-1-.6-1.6v-19.3c0-.6.2-1.1.6-1.6.4-.4 1-.6 1.6-.6.6 0 1.1.2 1.6.6.5.4.7.9.7 1.6zm-13.7 12.5c-.4.9-.9 1.7-1.6 2.4-.7.7-1.5 1.2-2.4 1.6-.9.4-1.9.6-2.9.6s-2-.2-2.9-.6c-.9-.4-1.7-.9-2.3-1.6-.7-.7-1.2-1.5-1.6-2.4-.4-.9-.6-1.9-.6-2.9s.2-2 .6-2.9c.4-.9.9-1.7 1.6-2.4.7-.7 1.4-1.2 2.3-1.6.9-.4 1.9-.6 2.9-.6s2 .2 2.9.6c.9.4 1.7.9 2.4 1.6.7.7 1.2 1.5 1.6 2.4.4.9.6 1.9.6 2.9 0 1.1-.2 2-.6 2.9zm1.5-11.3c-2.3-2.3-5.1-3.5-8.4-3.5-3.3 0-6.1 1.2-8.4 3.5-2.3 2.3-3.5 5.1-3.5 8.4 0 3.3 1.2 6.1 3.5 8.4 2.3 2.3 5.1 3.5 8.4 3.5 1.4 0 2.7-.2 4-.7 1.2-.5 2.4-1.1 3.4-2v.5c0 .6.2 1.1.6 1.6.4.4 1 .6 1.6.6.6 0 1.1-.2 1.6-.6.4-.4.6-1 .6-1.6v-9.7c.1-3.2-1.1-6-3.4-8.4zm-69.2 6.2c.2-.8.6-1.5 1-2.1.5-.6 1-1.2 1.7-1.7.6-.5 1.3-.8 2.1-1.1.8-.3 1.5-.4 2.3-.4.8 0 1.6.1 2.3.4.8.3 1.4.6 2.1 1.1.6.5 1.2 1 1.6 1.7.5.6.8 1.4 1.1 2.1H38.9zm18.2-2.3c-.6-1.4-1.4-2.7-2.6-3.8-2.3-2.3-5.1-3.5-8.4-3.5-3.3 0-6.1 1.2-8.4 3.5-2.3 2.3-3.5 5.1-3.5 8.4 0 3.3 1.2 6.1 3.5 8.4 2.3 2.3 5.1 3.5 8.4 3.5 3 0 5.6-1 7.7-2.9.4-.4.6-1 .6-1.6 0-.6-.2-1.2-.6-1.6-.4-.4-.9-.6-1.6-.6-.5 0-1 .2-1.5.6-.7.6-1.4 1-2.2 1.3-.8.3-1.6.4-2.6.4-.8 0-1.6-.1-2.4-.4-.8-.3-1.4-.6-2.1-1.1-.6-.5-1.2-1-1.6-1.7-.5-.6-.8-1.4-1.1-2.1h16.8c.6 0 1.1-.2 1.6-.6.4-.4.6-.9.6-1.6.2-1.7-.1-3.2-.6-4.6zm-26.5 11c0 .6-.2 1.1-.7 1.6-3.1 2.5-6.7 3.8-10.6 3.8-4.7 0-8.7-1.7-12-5-3.3-3.3-5-7.3-5-12s1.7-8.7 5-12c3.3-3.3 7.3-5 12-5 4 0 7.6 1.3 10.9 4 .4.4.6.9.6 1.6 0 .3-.1.6-.2.9-.1.3-.3.5-.5.7-.2.2-.4.4-.7.5-.3.1-.6.1-.9.1-.6 0-1.1-.2-1.5-.6-1.1-.9-2.3-1.5-3.5-2-1.3-.5-2.7-.7-4.1-.7-3.4 0-6.4 1.2-8.8 3.7-2.4 2.4-3.6 5.4-3.6 8.8 0 3.5 1.2 6.4 3.6 8.8 2.4 2.4 5.4 3.7 8.8 3.7 2.6 0 4.8-.7 6.9-2v-6.6h-5.8c-.6 0-1.2-.2-1.6-.6-.4-.4-.6-1-.6-1.6 0-.3.1-.6.2-.9.1-.3.3-.5.5-.7.2-.2.4-.4.7-.5.3-.1.6-.2.9-.2h8.1c.3 0 .6.1.8.2.3.1.5.3.7.5.2.2.4.4.5.7.1.3.2.6.2.9v9.9z"/></symbol><symbol viewBox="0 0 512 512" id="linkedin" xmlns="http://www.w3.org/2000/svg"><path d="M437.022 74.984C388.67 26.63 324.381 0 256 0 187.624 0 123.338 26.63 74.984 74.984S0 187.624 0 256c0 68.388 26.63 132.678 74.984 181.028C123.335 485.375 187.621 512 256 512c68.385 0 132.673-26.625 181.021-74.972C485.372 388.679 512 324.389 512 256c0-68.377-26.628-132.664-74.978-181.016zm-11.314 350.73C380.381 471.039 320.111 496 256 496c-64.106 0-124.374-24.961-169.703-70.286C40.965 380.386 16 320.113 16 256c0-64.102 24.965-124.37 70.297-169.703C131.63 40.965 191.898 16 256 16c64.108 0 124.378 24.965 169.708 70.297C471.037 131.628 496 191.896 496 256c0 64.115-24.963 124.387-70.292 169.714z"/><path d="M430.038 114.969a7.999 7.999 0 0 0-11.253-1.172 7.999 7.999 0 0 0-1.172 11.252C447.526 161.919 464 208.426 464 256c0 55.567-21.635 107.803-60.919 147.085C363.797 442.367 311.563 464 256 464c-51.26 0-100.505-18.807-138.663-52.956a8 8 0 0 0-10.67 11.922C147.763 459.745 200.797 480 256 480c59.837 0 116.089-23.297 158.394-65.601C456.701 372.095 480 315.84 480 256c0-51.233-17.744-101.319-49.962-141.031zM48 256c0-114.691 93.309-208 208-208 51.26 0 100.504 18.808 138.662 52.959a8 8 0 0 0 11.296-.625 8 8 0 0 0-.625-11.296C364.237 52.256 311.203 32 256 32c-59.829 0-116.08 23.301-158.389 65.611C55.301 139.921 32 196.171 32 256c0 51.239 17.744 101.328 49.963 141.038a7.983 7.983 0 0 0 6.217 2.96 8 8 0 0 0 6.208-13.041C64.474 350.088 48 303.58 48 256z"/><path d="M325.685 373.042h49.577a8 8 0 0 0 8-8v-85.508c0-24.007-6.204-42.903-18.439-56.162-11.438-12.395-27.571-18.947-46.653-18.947-16.595 0-28.251 5.056-36.677 11.636v-.138a8 8 0 0 0-8-8H223.93a8.003 8.003 0 0 0-7.992 8.364c.62 13.618-.002 147.368-.008 148.718a8.001 8.001 0 0 0 8 8.037h49.562a8 8 0 0 0 8-8V281.76c0-4.336.347-7.376 1.053-9.092 1.594-3.953 6.54-13.146 18.02-13.146 4.683 0 17.121 0 17.121 25.734v79.785a7.998 7.998 0 0 0 7.999 8.001zm-25.121-129.52c-14.727 0-27.01 8.659-32.835 23.106-1.547 3.754-2.237 8.421-2.237 15.131v75.282h-33.526c.111-25.855.418-105.46.123-133.119h33.403v13.117a8 8 0 0 0 14.713 4.351c6.721-10.367 16.487-20.966 37.964-20.966 31.199 0 49.093 21.544 49.093 59.108v77.508h-33.577v-71.785c0-12.136-2.428-21.855-7.216-28.887-5.723-8.404-14.681-12.846-25.905-12.846zm-92.817-73.917c-.41-19.786-15.099-33.605-35.72-33.605C151.151 136 136 150.203 136 169.771s14.877 33.771 35.375 33.771h.333c20.883 0 36.041-14.203 36.041-33.771l-.002-.166zm-36.039 17.937h-.333c-11.589 0-19.375-7.142-19.375-17.771 0-10.629 8.048-17.771 20.026-17.771 11.906 0 19.456 6.838 19.722 17.853-.041 10.584-8.084 17.689-20.04 17.689zm-24.789 20.38a8 8 0 0 0-8 8v149.119a8 8 0 0 0 8 8h49.591a8 8 0 0 0 8-8V215.922a8 8 0 0 0-8-8h-49.591zm41.592 149.12H154.92v-133.12h33.591v133.12z"/></symbol><symbol viewBox="0 0 480 480" id="manufacturer" xmlns="http://www.w3.org/2000/svg"><path d="M112 80v16h16V80c0-4.4 3.6-8 8-8h32c13.3 0 24-10.7 24-24V32h-16v16c0 4.4-3.6 8-8 8h-32c-13.3 0-24 10.7-24 24zM88 48c0-4.4 3.6-8 8-8h32c13.3 0 24-10.7 24-24V0h-16v16c0 4.4-3.6 8-8 8H96c-13.3 0-24 10.7-24 24v16h16V48zm128 104v16h16v-16c0-4.4 3.6-8 8-8h32c13.3 0 24-10.7 24-24v-16h-16v16c0 4.4-3.6 8-8 8h-32c-13.3 0-24 10.7-24 24zm-40-32v16h16v-16c0-4.4 3.6-8 8-8h32c13.3 0 24-10.7 24-24V72h-16v16c0 4.4-3.6 8-8 8h-32c-13.3 0-24 10.7-24 24zm0 0"/><path d="M472 304h-74.2l-14.2-42.5c-1.1-3.3-4.1-5.5-7.6-5.5h-48c-4.4 0-8 3.6-8 8v40h-18.2l-14.2-42.5c-1.1-3.3-4.1-5.5-7.6-5.5h-16v-64c0-4.4-3.6-8-8-8h-96v-64c0-4.4-3.6-8-8-8H40c-4.4 0-8 3.6-8 8v79.5L.1 438.9c0 .3-.1.7-.1 1.1v32c0 4.4 3.6 8 8 8h464c4.4 0 8-3.6 8-8V312c0-4.4-3.6-8-8-8zM16 440.5L47.9 201c0-.3.1-.7.1-1.1v-72h96v72c0 .4 0 .7.1 1.1L176 440.5V464H16v-23.5zM224 264v200h-32v-24c0-.4 0-.7-.1-1.1L160.1 200H248v56h-16c-4.4 0-8 3.6-8 8zm240 200H240V272h34.2l14.2 42.5c1.1 3.3 4.1 5.5 7.6 5.5h32c4.4 0 8-3.6 8-8v-40h34.2l14.2 42.5c1.1 3.3 4.1 5.5 7.6 5.5h72v144zm0 0"/><path d="M296 336h-32c-4.4 0-8 3.6-8 8v48c0 4.4 3.6 8 8 8h32c4.4 0 8-3.6 8-8v-48c0-4.4-3.6-8-8-8zm-8 48h-16v-32h16v32zm80-48h-32c-4.4 0-8 3.6-8 8v48c0 4.4 3.6 8 8 8h32c4.4 0 8-3.6 8-8v-48c0-4.4-3.6-8-8-8zm-8 48h-16v-32h16v32zm48 16h32c4.4 0 8-3.6 8-8v-48c0-4.4-3.6-8-8-8h-32c-4.4 0-8 3.6-8 8v48c0 4.4 3.6 8 8 8zm8-48h16v32h-16v-32zM280 72h16v16h-16z"/></symbol><symbol viewBox="0 0 496 496" id="marketplace" xmlns="http://www.w3.org/2000/svg"><path d="M496 119c0-5.8-1.2-11.4-3.5-16.7l-28.5-64V32c0-17.6-14.4-32-32-32H64C46.4 0 32 14.4 32 32v6.3L3.5 102.4C1.2 107.6 0 113.2 0 119c0 19.5 13.7 35.8 32 39.9V352h64v104c0 22.1 17.9 40 40 40h224c22.1 0 40-17.9 40-40V352h64V158.9c18.3-4.1 32-20.4 32-39.9zM64 16h368c8.8 0 16 7.2 16 16H48c0-8.8 7.2-16 16-16zm272 104.6c0 12.9-10.5 23.4-23.4 23.4-10.8 0-20.1-7.3-22.8-17.8L288 119V48h40.8l7.2 72.6zM208 119l-1.8 7.2c-2.6 10.5-12 17.8-22.7 17.8-12.9 0-23.4-10.5-23.5-23.2l7.3-72.8H208v71zm-63.8-1.3l-6.5 13c-4.1 8.2-12.3 13.3-21.5 13.3H112c-13.2 0-24-10.8-24-24h-.2l14.7-72h48.6l-6.9 69.7zM224 48h48v72c0 13.2-10.8 24-24 24s-24-10.8-24-24V48zm127.7 69.5L344.8 48h48.6l14.6 72.7c-.4 12.9-11 23.3-24 23.3h-4.2c-9.2 0-17.4-5.1-21.5-13.3l-6.6-13.2zM16 119c0-3.5.7-6.9 2.2-10.2l27-60.8h41l-14 70.1-1.8 7C67.7 136.2 57.7 144 46.2 144H41c-13.8 0-25-11.2-25-25zm368 146.1L358.4 248l25.6-17.1v34.2zM329.6 248l36 24H130.4l36-24-36-24h235.2l-36 24zM112 230.9l25.6 17.1-25.6 17.1v-34.2zM360 480H136c-13.2 0-24-10.8-24-24V288h272v168c0 13.2-10.8 24-24 24zm40-144V208H96v128H48V159.8c12.8-.6 24.2-6.9 31.4-16.9 7.3 10.3 19.1 17 32.6 17h4.2c13.9 0 26.5-7.1 33.8-18.8 7 11.2 19.3 18.8 33.4 18.8 13.1 0 24.9-6.5 32.2-16.7 7.3 10.1 19 16.7 32.4 16.7s25.1-6.6 32.4-16.7c7.2 10.2 19 16.7 32.2 16.7 14.1 0 26.5-7.5 33.4-18.8 7.3 11.6 19.9 18.8 33.8 18.8h4.2c13.5 0 25.4-6.8 32.6-17 7.2 9.9 18.6 16.3 31.4 16.9V336h-48zm55-192h-5.2c-11.5 0-21.5-7.8-24.3-18.9L409.8 48h41l27 60.8c1.4 3.2 2.2 6.6 2.2 10.2 0 13.8-11.2 25-25 25zm0 0"/><path d="M272 320h16v40c0 22.1-17.9 40-40 40s-40-17.9-40-40v-40h16v-16h-48v16h16v40c0 30.9 25.1 56 56 56s56-25.1 56-56v-40h16v-16h-48v16zm0 0"/></symbol><symbol viewBox="-49 181.1 512 431.8" id="online-store" xmlns="http://www.w3.org/2000/svg"><path d="M431.5 181.1h-449c-17.4 0-31.5 14.2-31.5 31.5v304.6c0 17.4 14.2 31.5 31.5 31.5h151.8l-6.1 49.1h-25.4c-4.1 0-7.5 3.4-7.5 7.5s3.4 7.5 7.5 7.5h208.4c4.1 0 7.5-3.4 7.5-7.5s-3.4-7.5-7.5-7.5h-25.4l-6.1-49.1h151.8c17.4 0 31.5-14.2 31.5-31.5V212.6c0-17.4-14.2-31.5-31.5-31.5zM270.6 597.9H143.4l6.1-49.1h27.6l2.7 10.8c3.1 12.5 14.3 21.2 27.2 21.2s24.1-8.7 27.2-21.2l2.7-10.8h27.6l6.1 49.1zm-78-49.1h28.9l-1.8 7.2c-1.5 5.8-6.7 9.9-12.6 9.9s-11.2-4.1-12.6-9.9l-1.9-7.2zM448 517.2c0 9.1-7.4 16.5-16.5 16.5h-449c-9.1 0-16.5-7.4-16.5-16.5V212.6c0-9.1 7.4-16.5 16.5-16.5h448.9c9.1 0 16.5 7.4 16.5 16.5l.1 304.6z"/><path d="M6.6 501.7h-8.5V228.1h377.3c4.1 0 7.5-3.4 7.5-7.5s-3.4-7.5-7.5-7.5H-9.4c-4.1 0-7.5 3.4-7.5 7.5v288.6c0 4.1 3.4 7.5 7.5 7.5h16c4.1 0 7.5-3.4 7.5-7.5s-3.4-7.5-7.5-7.5zm416.8-288.6h-16c-4.1 0-7.5 3.4-7.5 7.5s3.4 7.5 7.5 7.5h8.5v273.6H38.7c-4.1 0-7.5 3.4-7.5 7.5s3.4 7.5 7.5 7.5h384.8c4.1 0 7.5-3.4 7.5-7.5V220.6c-.1-4.1-3.4-7.5-7.6-7.5z"/><path d="M156.6 402.3c1.9.5 3.9.7 5.9.7.9 0 1.9-.1 2.8-.2l105.4-12.4c13.6-1.6 24.6-11.7 27.3-25.1l12.6-63c.4-2.1-.1-4.4-1.4-6.1-1.3-1.7-3.4-2.8-5.6-2.9l-176.4-8h-.4c-1-3.4-3.3-6.4-6.2-8.4L99 262.5c-3.4-2.3-8.1-1.4-10.4 2.1s-1.4 8.1 2.1 10.4l21.6 14.4c.1.1.2.2.2.3L140 386c.9 3 2.3 5.7 4.1 8L134 414.1c-2.4 4.8-2.2 10.5.7 15.1 1 1.7 2.3 3.1 3.8 4.2-2 3.4-3.1 7.4-3.1 11.7 0 13 10.6 23.5 23.5 23.5s23.5-10.6 23.5-23.5c0-3-.6-5.9-1.6-8.5h68.4c-1 2.6-1.6 5.5-1.6 8.5 0 13 10.6 23.5 23.5 23.5s23.5-10.6 23.5-23.5c0-3.8-.9-7.3-2.5-10.5 1.5-1.4 2.5-3.3 2.5-5.6 0-4.1-3.4-7.5-7.5-7.5H147.8c-.1 0-.3 0-.4-.2-.2-.2-.1-.4 0-.5l9.2-18.5zm7-14.3c-4.2.5-8-2.1-9.2-6.1l-9.6-33.4h24l6.3 38.2-11.5 1.3zm58.9-7v-32.6h25.7l-2.7 29.9-23 2.7zm0-47.6v-28.7L252 306l-2.5 27.4h-27zm-15 0h-26l-5.1-30.8 31.1 1.4v29.4zm0 15v34.4l-17.5 2.1-6-36.5h23.5zm61.4 27.2l-8.2 1 2.5-28.1H286l-2.8 14c-1.4 6.9-7.1 12.2-14.3 13.1zm20.1-42.2h-24.4l2.4-26.7 27.1 1.2-5.1 25.5zm-127.9-31.5l5.2 31.5h-25.8l-9.4-32.9 30 1.4zm6.3 143.2c0 4.7-3.8 8.5-8.5 8.5s-8.5-3.8-8.5-8.5 3.8-8.5 8.5-8.5 8.5 3.8 8.5 8.5zm103.7 8.5c-4.7 0-8.5-3.8-8.5-8.5s3.8-8.5 8.5-8.5 8.5 3.8 8.5 8.5c.1 4.7-3.8 8.5-8.5 8.5z"/></symbol><symbol viewBox="-31.789 158.211 477.578 477.578" id="performance" xmlns="http://www.w3.org/2000/svg"><path d="M-25.953 365.492a7.998 7.998 0 0 0-5.836 7.703v47.602a7.998 7.998 0 0 0 5.836 7.703l28.773 8.078a206.192 206.192 0 0 0 7.555 28.344l-20.82 21.32a8.001 8.001 0 0 0-1.57 8.859 239.857 239.857 0 0 0 24.617 42.579 7.986 7.986 0 0 0 8.461 3.055l28.859-7.391a209.255 209.255 0 0 0 20.727 20.727l-7.391 28.859a8.003 8.003 0 0 0 3.055 8.461 239.949 239.949 0 0 0 42.578 24.625 8.014 8.014 0 0 0 8.859-1.57l21.32-20.82a206.621 206.621 0 0 0 28.344 7.555l8.078 28.773a7.999 7.999 0 0 0 7.703 5.836h47.602a7.998 7.998 0 0 0 7.703-5.836l8.078-28.766a207.221 207.221 0 0 0 28.344-7.562l21.32 20.82a8.001 8.001 0 0 0 8.859 1.57 240.073 240.073 0 0 0 42.578-24.618 8.003 8.003 0 0 0 3.055-8.461l-7.391-28.859a209.343 209.343 0 0 0 20.726-20.726l28.859 7.391a7.986 7.986 0 0 0 8.461-3.055 239.86 239.86 0 0 0 24.625-42.579 8 8 0 0 0-1.57-8.859l-20.82-21.32a206.621 206.621 0 0 0 7.555-28.344l28.773-8.078a7.998 7.998 0 0 0 5.836-7.703v-47.609a7.998 7.998 0 0 0-5.836-7.703l-28.773-8.078a206.046 206.046 0 0 0-7.555-28.336l20.82-21.32a8.003 8.003 0 0 0 1.57-8.86 240.073 240.073 0 0 0-24.618-42.578 7.955 7.955 0 0 0-8.461-3.055l-28.859 7.391a209.343 209.343 0 0 0-20.726-20.726l7.391-28.859a8.003 8.003 0 0 0-3.055-8.461 239.949 239.949 0 0 0-42.578-24.625 7.956 7.956 0 0 0-8.859 1.57l-21.32 20.82a206.478 206.478 0 0 0-28.344-7.555l-8.079-28.773a7.998 7.998 0 0 0-7.703-5.836h-47.609a7.998 7.998 0 0 0-7.703 5.836l-8.078 28.773a206.046 206.046 0 0 0-28.336 7.555l-21.32-20.82a7.958 7.958 0 0 0-8.859-1.57 239.818 239.818 0 0 0-42.578 24.616 8.003 8.003 0 0 0-3.055 8.461l7.391 28.859a209.255 209.255 0 0 0-20.727 20.727l-28.859-7.391a7.932 7.932 0 0 0-8.461 3.055 239.949 239.949 0 0 0-24.625 42.578 8 8 0 0 0 1.57 8.859l20.82 21.32a206.478 206.478 0 0 0-7.555 28.344l-28.772 8.078zm51.273-44.015L4.859 300.523a224.858 224.858 0 0 1 17.578-30.398l28.375 7.266a7.991 7.991 0 0 0 8.148-2.656 192.713 192.713 0 0 1 25.781-25.773 8.014 8.014 0 0 0 2.656-8.156l-7.266-28.375a224.595 224.595 0 0 1 30.398-17.57l20.953 20.46a7.953 7.953 0 0 0 8.383 1.766 191.389 191.389 0 0 1 35.211-9.391 7.996 7.996 0 0 0 6.383-5.727l7.797-27.758h35.484l7.797 27.758a7.995 7.995 0 0 0 6.383 5.727 191.132 191.132 0 0 1 35.219 9.391 7.95 7.95 0 0 0 8.383-1.766l20.953-20.461a224.858 224.858 0 0 1 30.398 17.578l-7.266 28.375a7.995 7.995 0 0 0 2.656 8.148 192.713 192.713 0 0 1 25.773 25.781 7.973 7.973 0 0 0 8.156 2.656l28.375-7.266a223.824 223.824 0 0 1 17.57 30.398l-20.46 20.954a7.989 7.989 0 0 0-1.766 8.383 191.389 191.389 0 0 1 9.391 35.211 7.996 7.996 0 0 0 5.727 6.383l27.758 7.797v35.484l-27.758 7.797a7.995 7.995 0 0 0-5.727 6.383 191.132 191.132 0 0 1-9.391 35.219 7.984 7.984 0 0 0 1.766 8.383l20.461 20.953a224.858 224.858 0 0 1-17.578 30.398l-28.375-7.266a7.944 7.944 0 0 0-8.148 2.656 192.713 192.713 0 0 1-25.781 25.773 8.014 8.014 0 0 0-2.656 8.156l7.266 28.375a223.824 223.824 0 0 1-30.398 17.57l-20.954-20.46a7.958 7.958 0 0 0-8.383-1.766 191.547 191.547 0 0 1-35.219 9.398 8.007 8.007 0 0 0-6.383 5.727l-7.797 27.75h-35.477l-7.797-27.758a7.995 7.995 0 0 0-6.383-5.727 191.132 191.132 0 0 1-35.219-9.391 7.95 7.95 0 0 0-8.383 1.766l-20.953 20.461a224.858 224.858 0 0 1-30.398-17.578l7.266-28.375a7.995 7.995 0 0 0-2.656-8.148 192.713 192.713 0 0 1-25.773-25.781 8.025 8.025 0 0 0-8.156-2.656l-28.375 7.266a224.595 224.595 0 0 1-17.57-30.398l20.46-20.954a7.989 7.989 0 0 0 1.766-8.383 190.852 190.852 0 0 1-9.391-35.219 7.996 7.996 0 0 0-5.727-6.383l-27.757-7.797v-35.477l27.758-7.797a7.995 7.995 0 0 0 5.727-6.383 191.132 191.132 0 0 1 9.391-35.219 7.978 7.978 0 0 0-1.765-8.38z"/><path d="M207 557c88.366 0 160-71.634 160-160s-71.634-160-160-160S47 308.634 47 397c.098 88.325 71.675 159.902 160 160zM63.405 389a143.202 143.202 0 0 1 36.434-87.849l16.653 16.653 11.313-11.313-16.653-16.653a143.197 143.197 0 0 1 87.849-36.434V277h16v-23.595a143.202 143.202 0 0 1 87.849 36.434l-16.653 16.653 11.313 11.313 16.653-16.653a143.197 143.197 0 0 1 36.434 87.849H327v16h23.595a143.202 143.202 0 0 1-36.434 87.849l-16.653-16.653-11.313 11.313 16.653 16.653a143.203 143.203 0 0 1-87.849 36.434V517h-16v23.595a143.202 143.202 0 0 1-87.849-36.434l16.653-16.653-11.313-11.313-16.653 16.653A143.206 143.206 0 0 1 63.405 405H87v-16H63.405z"/><path d="M207 429c17.666-.018 31.982-14.334 32-32 0-.5-.023-1-.055-1.492l38.711-58.07a8 8 0 0 0-11.093-11.094L208.5 365.055c-.5-.032-.992-.055-1.5-.055-17.673 0-32 14.327-32 32s14.327 32 32 32zm0-48c.769.03 1.534.119 2.289.266a8.074 8.074 0 0 0 5.625-1.258l27.234-18.156-18.156 27.234a8.45 8.45 0 0 0-1.234 5.781c.136.704.217 1.417.242 2.133 0 8.837-7.163 16-16 16s-16-7.163-16-16 7.163-16 16-16z"/></symbol><symbol viewBox="0 0 139.391 138.604" id="popup-close" xmlns="http://www.w3.org/2000/svg"><path d="M69.695-.787C31.266-.787 0 30.479 0 68.908c0 38.43 31.266 69.696 69.695 69.696 38.43 0 69.696-31.266 69.696-69.696 0-38.429-31.266-69.695-69.696-69.695zm0 127.445c-31.84 0-57.746-25.906-57.746-57.75 0-31.84 25.906-57.746 57.746-57.746 31.844 0 57.75 25.906 57.75 57.746 0 31.844-25.91 57.75-57.75 57.75zm0 0"/><path d="M96.664 41.943a5.972 5.972 0 0 0-8.445 0L69.695 60.467 51.176 41.943a5.976 5.976 0 0 0-8.449 0 5.978 5.978 0 0 0 0 8.45L61.25 68.912 42.727 87.436a5.976 5.976 0 0 0 4.226 10.199 5.945 5.945 0 0 0 4.223-1.75l18.519-18.524 18.524 18.524a5.953 5.953 0 0 0 4.222 1.75 5.95 5.95 0 0 0 4.223-1.75 5.97 5.97 0 0 0 0-8.449l-18.519-18.52 18.519-18.523a5.978 5.978 0 0 0 0-8.45zm0 0"/></symbol><symbol viewBox="0 0 16 16" id="popup-success" xmlns="http://www.w3.org/2000/svg"><path d="M4.719 6.48L3.602 7.602l3.597 3.597 8-8-1.121-1.121-6.879 6.883-2.48-2.481zM14.398 8c0 3.52-2.878 6.398-6.398 6.398-3.52 0-6.398-2.878-6.398-6.398C1.602 4.48 4.48 1.602 8 1.602c.641 0 1.199.078 1.762.238L11.039.559C10.078.238 9.039 0 8 0 3.602 0 0 3.602 0 8s3.602 8 8 8 8-3.602 8-8h-1.602zm0 0"/></symbol><symbol viewBox="0 0 486.5 444.7" id="popup-warning" xmlns="http://www.w3.org/2000/svg"><path d="M243.2 312.5c-13.6 0-25 11.4-25 25s11.4 25 25 25c13.1 0 25-11.4 24.4-24.4.6-14.3-10.7-25.6-24.4-25.6z"/><path d="M474.6 401.1c15.7-27.1 15.8-59.4.2-86.4L318.2 43.5C302.7 16.2 274.7 0 243.3 0s-59.4 16.3-74.9 43.4L11.6 314.9c-15.6 27.3-15.5 59.8.3 86.9 15.6 26.8 43.5 42.9 74.7 42.9h312.8c31.3 0 59.4-16.3 75.2-43.6zm-34-19.6c-8.7 15-24.1 23.9-41.3 23.9H86.5c-17 0-32.3-8.7-40.8-23.4-8.6-14.9-8.7-32.7-.1-47.7L202.4 62.9c8.5-14.9 23.7-23.7 40.9-23.7 17.1 0 32.4 8.9 40.9 23.8l156.7 271.4c8.4 14.6 8.3 32.2-.3 47.1z"/><path d="M237 137c-11.9 3.4-19.3 14.2-19.3 27.3.6 7.9 1.1 15.9 1.7 23.8 1.7 30.1 3.4 59.6 5.1 89.7.6 10.2 8.5 17.6 18.7 17.6s18.2-7.9 18.7-18.2c0-6.2 0-11.9.6-18.2 1.1-19.3 2.3-38.6 3.4-57.9.6-12.5 1.7-25 2.3-37.5 0-4.5-.6-8.5-2.3-12.5-5.1-11.2-17-16.9-28.9-14.1z"/></symbol><symbol viewBox="0 0 512 512" id="share" xmlns="http://www.w3.org/2000/svg"><path d="M339.03 98.93c-1.86-1.86-4.44-2.92-7.07-2.92s-5.21 1.06-7.07 2.92a10.1 10.1 0 0 0-2.93 7.08c0 2.63 1.07 5.21 2.93 7.07 1.86 1.86 4.44 2.93 7.07 2.93s5.21-1.07 7.07-2.93c1.86-1.86 2.93-4.44 2.93-7.07a10.1 10.1 0 0 0-2.93-7.08zM186.53 252.6c-1.86-1.86-4.44-2.93-7.07-2.93s-5.21 1.07-7.07 2.93-2.93 4.44-2.93 7.07 1.07 5.21 2.93 7.07c1.86 1.86 4.44 2.93 7.07 2.93s5.21-1.07 7.07-2.93 2.93-4.44 2.93-7.07-1.07-5.21-2.93-7.07zM438 .457c-40.804 0-74 33.196-74 74s33.196 74 74 74 74-33.196 74-74-33.196-74-74-74zm35.577 114.573c-9.509 8.349-21.957 13.427-35.576 13.427-13.622 0-26.071-5.08-35.581-13.43v-.046a9.905 9.905 0 0 1 8.087-9.734l6.774-1.263c5.561 4.813 12.802 7.736 20.717 7.736 7.915 0 15.156-2.922 20.717-7.736l6.775 1.263a9.906 9.906 0 0 1 8.087 9.734v.049zm-47.283-35.015v-6.79c0-6.454 5.25-11.704 11.704-11.704 6.454 0 11.704 5.25 11.704 11.704v6.79c0 6.454-5.25 11.704-11.704 11.704-6.454 0-11.704-5.251-11.704-11.704zm60.944 16.571A29.851 29.851 0 0 0 469.2 85.594a31.77 31.77 0 0 0 .502-5.58v-6.79c0-17.482-14.222-31.704-31.704-31.704s-31.704 14.222-31.704 31.704v6.79c0 1.904.178 3.767.502 5.58a29.85 29.85 0 0 0-18.035 10.988A53.655 53.655 0 0 1 384 74.457c0-29.776 24.224-54 54-54s54 24.224 54 54a53.654 53.654 0 0 1-4.762 22.129zM337.837 323.543c-22.289 0-42.786 7.803-58.916 20.814l-67.833-67.37c-3.919-3.893-10.25-3.871-14.142.048-3.892 3.918-3.87 10.25.048 14.142l67.77 67.308c-13.079 16.152-20.928 36.704-20.928 59.058 0 51.832 42.168 94 94 94s94-42.168 94-94-42.167-94-93.999-94zm49.82 148.669c-13.158 12.002-30.648 19.331-49.819 19.331-19.174 0-36.665-7.332-49.824-19.336v-1.476a16.127 16.127 0 0 1 13.166-15.849l10.402-1.94c6.882 6.433 16.113 10.382 26.254 10.382s19.372-3.949 26.253-10.382l10.401 1.94a16.128 16.128 0 0 1 13.167 15.849v1.481zm-68.308-47.375v-8.912c0-10.193 8.293-18.486 18.486-18.486s18.486 8.293 18.486 18.486v8.912c0 10.193-8.293 18.486-18.486 18.486s-18.486-8.293-18.486-18.486zm83.537 27.961c-5.128-8.952-14.005-15.577-24.73-17.578l-3.105-.579a38.395 38.395 0 0 0 1.27-9.804v-8.912c0-21.222-17.265-38.486-38.486-38.486s-38.486 17.265-38.486 38.486v8.912c0 3.387.444 6.672 1.27 9.804l-3.106.579c-10.722 2-19.598 8.623-24.727 17.573-5.705-10.486-8.949-22.497-8.949-35.251 0-40.804 33.196-74 74-74s74 33.196 74 74c0 12.757-3.244 24.769-8.951 35.256zm-97.51-339.425c-1.474-5.322-6.984-8.442-12.307-6.966l-111.667 30.945C167.593 102.591 133.621 77.95 94 77.95c-51.832 0-94 42.168-94 94s42.168 94 94 94 94-42.168 94-94c0-5.218-.434-10.336-1.256-15.325L298.41 125.68c5.322-1.475 8.441-6.985 6.966-12.307zM143.819 226.619C130.66 238.62 113.171 245.95 94 245.95c-19.173 0-36.665-7.332-49.824-19.336v-1.476a16.127 16.127 0 0 1 13.166-15.849l10.402-1.94c6.882 6.433 16.113 10.381 26.254 10.381s19.372-3.949 26.253-10.381l10.402 1.94a16.127 16.127 0 0 1 13.166 15.849v1.481zm-68.307-47.374v-8.912c0-10.193 8.293-18.486 18.486-18.486s18.486 8.293 18.486 18.486v8.912c0 10.193-8.293 18.486-18.486 18.486s-18.486-8.292-18.486-18.486zm83.537 27.96c-5.128-8.952-14.005-15.577-24.73-17.577l-3.105-.579a38.395 38.395 0 0 0 1.27-9.804v-8.912c0-21.221-17.265-38.486-38.486-38.486-21.221 0-38.486 17.265-38.486 38.486v8.912c0 3.387.444 6.672 1.27 9.804l-3.106.579c-10.722 2-19.598 8.622-24.727 17.573C23.243 196.714 20 184.704 20 171.95c0-40.804 33.196-74 74-74s74 33.196 74 74c0 12.756-3.245 24.768-8.951 35.255z"/></symbol><symbol viewBox="0 0 233.8 235.9" id="show-more" xmlns="http://www.w3.org/2000/svg"><path d="M25.6 0C11.5 0 0 11.5 0 25.6c0 2.6 2.1 4.8 4.8 4.8 2.6 0 4.8-2.1 4.8-4.8 0-8.8 7.2-16 16-16s16 7.2 16 16-7.2 16-16 16c-2.7 0-4.8 2.1-4.8 4.8 0 2.6 2.1 4.8 4.8 4.8 14.1 0 25.6-11.5 25.6-25.6C51.2 11.5 39.7 0 25.6 0zm91.3 0c-14.1 0-25.6 11.5-25.6 25.6 0 14.1 11.5 25.6 25.6 25.6 14.1 0 25.6-11.5 25.6-25.6C142.5 11.5 131 0 116.9 0zm0 41.6c-8.8 0-16-7.2-16-16s7.2-16 16-16 16 7.2 16 16-7.2 16-16 16zm91.3 9.6c14.1 0 25.6-11.5 25.6-25.6 0-14.1-11.5-25.6-25.6-25.6-14.1 0-25.6 11.5-25.6 25.6 0 14.1 11.4 25.6 25.6 25.6zm0-41.6c8.8 0 16 7.2 16 16s-7.2 16-16 16-16-7.2-16-16 7.1-16 16-16zM25.6 92.3C11.5 92.3 0 103.8 0 117.9c0 14.1 11.5 25.6 25.6 25.6 14.1 0 25.6-11.5 25.6-25.6 0-14.1-11.5-25.6-25.6-25.6zm0 41.6c-8.8 0-16-7.2-16-16s7.2-16 16-16 16 7.2 16 16c0 8.9-7.2 16-16 16zm112.1-20.8c-2.7 0-4.8 2.1-4.8 4.8 0 8.8-7.2 16-16 16s-16-7.2-16-16 7.2-16 16-16c2.6 0 4.8-2.2 4.8-4.8 0-2.7-2.2-4.8-4.8-4.8-14.1 0-25.6 11.5-25.6 25.6 0 14.1 11.5 25.6 25.6 25.6 14.1 0 25.6-11.5 25.6-25.6 0-2.6-2.2-4.8-4.8-4.8zm70.5-20.8c-14.1 0-25.6 11.5-25.6 25.6 0 14.1 11.5 25.6 25.6 25.6 14.1 0 25.6-11.5 25.6-25.6 0-14.1-11.5-25.6-25.6-25.6zm0 41.6c-8.8 0-16-7.2-16-16s7.2-16 16-16 16 7.2 16 16c0 8.9-7.2 16-16 16zM25.6 184.7C11.5 184.7 0 196.2 0 210.3c0 14.1 11.5 25.6 25.6 25.6 14.1 0 25.6-11.5 25.6-25.6 0-14.1-11.5-25.6-25.6-25.6zm0 41.6c-8.8 0-16-7.2-16-16s7.2-16 16-16 16 7.2 16 16-7.2 16-16 16zm91.3-41.6c-14.1 0-25.6 11.5-25.6 25.6 0 14.1 11.5 25.6 25.6 25.6 14.1 0 25.6-11.5 25.6-25.6 0-14.1-11.5-25.6-25.6-25.6zm0 41.6c-8.8 0-16-7.2-16-16s7.2-16 16-16 16 7.2 16 16-7.2 16-16 16zm91.3-41.6c-14.1 0-25.6 11.5-25.6 25.6 0 14.1 11.5 25.6 25.6 25.6 14.1 0 25.6-11.5 25.6-25.6 0-14.1-11.5-25.6-25.6-25.6zm0 41.6c-8.8 0-16-7.2-16-16s7.2-16 16-16 16 7.2 16 16-7.2 16-16 16zm0 0"/></symbol><symbol viewBox="0 0 480 480" id="speed" xmlns="http://www.w3.org/2000/svg"><path d="M240 0C107.452 0 0 107.452 0 240s107.452 240 240 240 240-107.452 240-240C479.85 107.514 372.486.15 240 0zm0 464C116.288 464 16 363.712 16 240S116.288 16 240 16s224 100.288 224 224c-.141 123.653-100.347 223.859-224 224z"/><path d="M240 32C125.125 32 32 125.125 32 240s93.125 208 208 208 208-93.125 208-208c-.128-114.822-93.178-207.872-208-208zm0 400c-106.039 0-192-85.961-192-192S133.961 48 240 48s192 85.961 192 192c-.123 105.987-86.013 191.877-192 192z"/><path d="M56 232h32v16H56zm336 0h32v16h-32zM76.64 325.086l27.716-15.997 7.998 13.858-27.715 15.996zM367.642 157.07l27.715-15.997 7.999 13.858-27.716 15.996zm-290.993-2.143l7.998-13.858 27.715 15.997-7.998 13.857zm290.998 167.964l7.999-13.858 27.715 15.997-7.998 13.858zM141.042 84.65l13.858-8 15.997 27.715-13.858 7.999zM232 56h16v32h-16zm77.066 48.354l15.996-27.715 13.858 7.998-15.997 27.716zM60.194 200.097l4.14-15.454 23.182 6.211-4.14 15.454zm332.229 89.026l4.141-15.455 23.182 6.212-4.141 15.454zM104.237 115.547l11.314-11.313 16.97 16.97-11.313 11.314zm80.377-51.199l15.454-4.14 6.211 23.181-15.454 4.141zm89.055 19.082l6.21-23.182 15.455 4.141-6.21 23.182zm73.81 37.797l16.97-16.97 11.314 11.313-16.97 16.97zm45.037 69.629l23.182-6.211 4.14 15.454-23.18 6.211zM60.194 279.892l23.182-6.212 4.14 15.455-23.181 6.211zm213.749-171.525c-72.737-18.735-146.889 25.041-165.625 97.777A136 136 0 0 0 122.2 307.999a8 8 0 1 0 13.848-8c-33.098-57.418-13.382-130.795 44.036-163.893 57.418-33.098 130.795-13.382 163.893 44.036a119.999 119.999 0 0 1 12.24 89.873 8.006 8.006 0 0 0 15.504 4v-.024c18.735-72.736-25.042-146.888-97.778-165.624z"/><path d="M357.064 297.808l-88-72a7.494 7.494 0 0 0-.744-.4c-8.031-15.689-27.259-21.897-42.947-13.866-15.689 8.031-21.897 27.259-13.866 42.947a31.914 31.914 0 0 0 26.573 17.319l111.2 39.72A7.885 7.885 0 0 0 352 312a8.001 8.001 0 0 0 5.064-14.192zM240 256c-8.837 0-16-7.163-16-16s7.163-16 16-16 16 7.163 16 16-7.163 16-16 16zm21.8 7.296a31.807 31.807 0 0 0 9.072-15.336l40.328 32.952-49.4-17.616zM272 320h-64c-22.091 0-40 17.909-40 40s17.909 40 40 40h64c22.091 0 40-17.909 40-40s-17.909-40-40-40zm0 64h-64c-13.255 0-24-10.745-24-24s10.745-24 24-24h64c13.255 0 24 10.745 24 24s-10.745 24-24 24z"/><path d="M224 352h-16a8 8 0 0 0 0 16h16a8 8 0 0 0 0-16zm48 0h-16a8 8 0 0 0 0 16h16a8 8 0 0 0 0-16z"/></symbol><symbol viewBox="0 0 512 512" id="twitter" xmlns="http://www.w3.org/2000/svg"><path d="M437.022 74.984C388.67 26.63 324.381 0 256 0 187.624 0 123.338 26.63 74.984 74.984S0 187.624 0 256c0 68.388 26.63 132.678 74.984 181.028C123.335 485.375 187.621 512 256 512c68.385 0 132.673-26.625 181.021-74.972C485.372 388.679 512 324.389 512 256c0-68.377-26.628-132.664-74.978-181.016zm-11.314 350.73C380.381 471.039 320.111 496 256 496c-64.106 0-124.374-24.961-169.703-70.286C40.965 380.386 16 320.113 16 256c0-64.102 24.965-124.37 70.297-169.703C131.63 40.965 191.898 16 256 16c64.108 0 124.378 24.965 169.708 70.297C471.037 131.628 496 191.896 496 256c0 64.115-24.963 124.387-70.292 169.714z"/><path d="M430.038 114.969a7.999 7.999 0 0 0-11.253-1.172 7.999 7.999 0 0 0-1.172 11.252C447.526 161.919 464 208.426 464 256c0 55.567-21.635 107.803-60.919 147.085C363.797 442.367 311.563 464 256 464c-51.26 0-100.505-18.807-138.663-52.956a8 8 0 0 0-10.67 11.922C147.763 459.745 200.797 480 256 480c59.837 0 116.089-23.297 158.394-65.601C456.701 372.095 480 315.84 480 256c0-51.233-17.744-101.319-49.962-141.031zM48 256c0-114.691 93.309-208 208-208 51.26 0 100.504 18.808 138.662 52.959a8 8 0 0 0 11.296-.625 8 8 0 0 0-.625-11.296C364.237 52.256 311.203 32 256 32c-59.829 0-116.08 23.301-158.389 65.611C55.301 139.921 32 196.171 32 256c0 51.239 17.744 101.328 49.963 141.038a7.983 7.983 0 0 0 6.217 2.96 8 8 0 0 0 6.208-13.041C64.474 350.088 48 303.58 48 256z"/><path d="M398.655 194.764a8 8 0 0 0-9.89-11.757c-.204.09-.408.18-.612.268a58.67 58.67 0 0 0 4.63-10.676 7.999 7.999 0 0 0-11.702-9.32 93.353 93.353 0 0 1-25.726 10.498c-10.798-9.778-25.002-15.307-39.646-15.307-32.47 0-58.887 26.402-58.887 58.855 0 .928.021 1.854.063 2.776-34.859-4.249-67.035-21.913-89.417-49.384a8 8 0 0 0-13.114 1.026c-5.214 8.949-7.97 19.185-7.97 29.602a58.937 58.937 0 0 0 7.052 28.008 8 8 0 0 0-7.47 7.983v.636c0 17.624 7.908 33.796 20.616 44.719a8 8 0 0 0-2.395 8.497c5.467 17.082 18.25 30.333 34.264 36.714-13.001 6.537-27.355 9.933-42.315 9.933-3.772 0-7.544-.216-11.211-.643a7.999 7.999 0 0 0-5.244 14.68A152.178 152.178 0 0 0 221.996 376c57.454 0 93.424-27.125 113.482-49.88 24.968-28.326 39.288-65.827 39.288-102.89 0-.914-.007-1.804-.022-2.676a110.46 110.46 0 0 0 23.911-25.79zm-36.724 15.406a8.002 8.002 0 0 0-3.311 6.883c.097 1.97.145 3.99.145 6.177 0 33.221-12.863 66.866-35.29 92.31C305.597 335.822 273.479 360 221.996 360c-15.75 0-31.25-2.705-45.896-7.938 17.51-3.161 33.891-10.506 48.153-21.695a8 8 0 0 0-4.788-14.293 42.895 42.895 0 0 1-34.527-18.535 59.487 59.487 0 0 0 11.91-1.951 8 8 0 0 0-.501-15.565c-15.937-3.219-28.377-15.183-32.716-30.254a59.173 59.173 0 0 0 13.119 1.932 8 8 0 0 0 4.708-14.65c-11.942-7.97-19.071-21.318-19.071-35.707 0-3.646.462-7.259 1.363-10.751 26.808 27.682 63.308 44.387 101.994 46.315a8.002 8.002 0 0 0 8.189-9.809 43.065 43.065 0 0 1-1.108-9.775c0-23.63 19.239-42.855 42.887-42.855 11.804 0 23.217 4.931 31.314 13.527a8.002 8.002 0 0 0 7.358 2.367 109.068 109.068 0 0 0 8.986-2.156 43.194 43.194 0 0 1-4.696 3.25 8 8 0 0 0-3.463 9.442 7.995 7.995 0 0 0 8.506 5.367c1.303-.153 2.602-.329 3.897-.529a96.1 96.1 0 0 1-5.683 4.433z"/></symbol><symbol viewBox="0 0 294.812 294.812" id="user" xmlns="http://www.w3.org/2000/svg"><path d="M251.654 43.164c-57.479-57.48-151.006-57.48-208.485 0-20.167 20.167-33.962 45.503-39.895 73.27-5.776 27.037-3.884 55.049 5.471 81.006a6 6 0 1 0 11.289-4.069c-8.595-23.849-10.333-49.586-5.025-74.431 5.447-25.496 18.119-48.766 36.645-67.292 52.801-52.801 138.714-52.801 191.515 0 25.145 25.146 39.221 58.571 39.634 94.12.413 35.484-12.811 69.176-37.234 94.868-.289.304-.575.61-.861.916-.506.541-1.011 1.083-1.539 1.611-52.801 52.801-138.714 52.801-191.515 0a44.08 44.08 0 0 1-.826-.853c-.014-.554-.026-1.1-.026-1.638 0-1.208.023-2.411.067-3.61.015-.401.045-.798.065-1.198.039-.797.076-1.594.134-2.387.035-.473.086-.941.128-1.412.063-.715.122-1.43.2-2.141.055-.502.127-1 .19-1.5.085-.675.166-1.352.266-2.024.076-.512.166-1.019.25-1.528.107-.655.211-1.31.332-1.961.095-.515.204-1.025.308-1.537.129-.639.256-1.279.398-1.914.115-.515.243-1.027.366-1.539.15-.625.299-1.25.461-1.87.135-.514.281-1.024.423-1.535.171-.612.341-1.225.524-1.833.153-.51.317-1.016.479-1.522.192-.601.384-1.203.587-1.799.172-.503.352-1.003.532-1.503.213-.592.427-1.184.651-1.772.19-.497.387-.989.585-1.482.233-.581.468-1.162.712-1.738.208-.49.422-.976.638-1.462.253-.571.509-1.14.773-1.705.225-.481.455-.959.688-1.436.274-.561.551-1.121.835-1.676a97.516 97.516 0 0 1 2.414-4.426 97.851 97.851 0 0 1 3.677-5.849c.353-.52.714-1.034 1.078-1.547.303-.427.606-.853.916-1.274a93.12 93.12 0 0 1 1.137-1.511c.317-.414.633-.828.957-1.237.393-.497.795-.988 1.198-1.477.329-.4.658-.8.994-1.195a95.68 95.68 0 0 1 1.261-1.443c.342-.386.682-.773 1.03-1.153a92.1 92.1 0 0 1 1.321-1.404c.354-.372.706-.745 1.066-1.112.455-.462.92-.914 1.384-1.368.364-.355.725-.714 1.095-1.064.478-.452.967-.893 1.454-1.335.372-.337.739-.678 1.116-1.01.503-.443 1.019-.873 1.532-1.306.376-.317.748-.639 1.129-.951.531-.434 1.075-.855 1.617-1.279.378-.295.75-.597 1.132-.887.571-.433 1.154-.851 1.736-1.271.367-.266.727-.538 1.099-.799.642-.451 1.299-.886 1.954-1.323.323-.215.639-.438.964-.65a96.729 96.729 0 0 1 2.598-1.622c.136-.082.268-.17.405-.252a98.838 98.838 0 0 1 3.076-1.766c.355-.195.72-.378 1.079-.569.689-.368 1.376-.739 2.077-1.091.449-.226.909-.438 1.362-.657.572-.277 1.142-.557 1.721-.824 10.875 10.388 25.382 16.269 40.44 16.269 15.058 0 29.566-5.882 40.441-16.271 21.229 9.825 38.604 27.454 48.037 48.892a6 6 0 1 0 10.983-4.832c-10.318-23.45-28.281-42.189-51.018-53.501 6.597-9.677 10.166-21.104 10.166-32.896 0-32.317-26.292-58.609-58.609-58.609a6 6 0 0 0 0 12c25.701 0 46.609 20.909 46.609 46.609 0 11.492-4.271 22.558-12.025 31.157l-.003.003c-8.854 9.818-21.458 15.449-34.582 15.449s-25.729-5.631-34.582-15.449l-.005-.004c-7.753-8.602-12.023-19.665-12.023-31.155 0-12.544 4.911-24.312 13.829-33.134a6 6 0 1 0-8.44-8.531c-11.213 11.09-17.389 25.887-17.389 41.661 0 11.78 3.56 23.199 10.146 32.871-.059.029-.116.061-.174.091-.468.234-.925.482-1.389.721-.711.368-1.424.734-2.125 1.117-.496.27-.981.554-1.472.831-.655.371-1.311.74-1.957 1.123-.501.298-.994.606-1.49.911-.62.382-1.24.763-1.851 1.156-.499.321-.989.651-1.482.979-.593.395-1.185.792-1.769 1.198-.491.342-.976.691-1.461 1.04-.57.411-1.138.824-1.699 1.245-.481.361-.956.727-1.43 1.095a103.251 103.251 0 0 0-4.61 3.787 101.472 101.472 0 0 0-2.877 2.593c-.436.407-.871.815-1.301 1.23-.499.482-.99.971-1.48 1.462-.418.419-.836.837-1.246 1.262-.485.503-.961 1.015-1.436 1.527-.397.428-.797.854-1.187 1.289-.475.528-.937 1.067-1.401 1.604-.373.432-.749.86-1.115 1.297-.471.563-.927 1.137-1.386 1.709-.341.426-.689.846-1.024 1.277-.482.62-.948 1.252-1.416 1.882-.294.396-.596.785-.884 1.185a106.27 106.27 0 0 0-1.733 2.488c-.149.22-.307.434-.455.655a107.713 107.713 0 0 0-2.063 3.204c-.231.373-.448.754-.674 1.129-.433.719-.868 1.437-1.285 2.166-.26.455-.506.918-.759 1.377-.365.66-.732 1.318-1.082 1.986-.26.495-.506.996-.759 1.495-.326.644-.653 1.287-.966 1.938-.249.518-.486 1.042-.727 1.563-.296.643-.593 1.285-.877 1.934-.234.535-.458 1.075-.683 1.614-.271.647-.54 1.294-.798 1.946-.217.548-.425 1.099-.633 1.65-.246.654-.489 1.309-.723 1.968a119.261 119.261 0 0 0-1.23 3.675 111.873 111.873 0 0 0-1.564 5.453 108.91 108.91 0 0 0-.509 2.063 102.99 102.99 0 0 0-.4 1.729c-.154.699-.297 1.402-.437 2.106-.115.576-.232 1.152-.338 1.731-.131.718-.249 1.44-.366 2.163-.092.57-.189 1.139-.272 1.711-.109.746-.201 1.496-.295 2.246-.069.556-.145 1.111-.206 1.669-.086.786-.152 1.577-.221 2.368-.046.527-.101 1.052-.139 1.582-.064.883-.106 1.77-.149 2.658-.021.441-.054.879-.07 1.321a111.357 111.357 0 0 0-.075 4.011c0 1.449.049 2.819.108 4.332.014.35.063.69.133 1.022l.015.078c.074.327.178.641.303.945l.036.09c.129.3.283.586.457.858l.065.101c.179.267.378.518.595.752.016.017.027.038.043.055l.792.843a75.61 75.61 0 0 0 1.82 1.901c28.74 28.74 66.491 43.11 104.243 43.11s75.503-14.37 104.243-43.11c.624-.623 1.222-1.262 1.82-1.901l.792-.843c26.589-27.971 40.985-64.647 40.536-103.275-.447-38.705-15.771-75.095-43.145-102.469z"/></symbol></svg>