<?xml version="1.0" encoding="utf-8"?>
<!-- Generator: Adobe Illustrator 23.0.1, SVG Export Plug-In . SVG Version: 6.00 Build 0)  -->
<svg version="1.1" id="Layer_1" xmlns="http://www.w3.org/2000/svg" xmlns:xlink="http://www.w3.org/1999/xlink" x="0px" y="0px"
	 viewBox="0 0 979.9 878.1" style="enable-background:new 0 0 979.9 878.1;" xml:space="preserve">
<g>
	<path d="M954.2,878.1H25.8c-9.2,0-17.6-4.8-22.3-12.8c-4.6-8-4.6-17.7-0.2-25.7L467.5,14.4c4.6-8.1,13.2-13.1,22.5-13.1
		s17.9,5,22.5,13.1l464.1,825.2c4.5,8,4.4,17.7-0.2,25.7C971.9,873.3,963.4,878.1,954.2,878.1z M69.9,826.6h840.2L490,79.7
		L69.9,826.6z"/>
	<path d="M490,572.8c-14.3,0-25.8-10.8-25.8-24.1V308.2c0-13.2,11.5-24.1,25.8-24.1s25.8,10.8,25.8,24.1v240.5
		C515.8,562,504.3,572.8,490,572.8z"/>
	<path d="M489.9,723.3c-14.3,0-25.8-12.5-25.8-21v-30.9c0-8.5,11.5-20.6,25.8-20.6s25.8,12.1,25.8,20.6v30.9
		C515.7,710.9,504.2,723.3,489.9,723.3z"/>
</g>
</svg>
