<?xml version="1.0" encoding="utf-8"?><svg xmlns="http://www.w3.org/2000/svg" xmlns:xlink="http://www.w3.org/1999/xlink"><symbol viewBox="0 0 480 480" id="manufacturers" xmlns="http://www.w3.org/2000/svg"><path d="M112 80v16h16V80c0-4.4 3.6-8 8-8h32c13.3 0 24-10.7 24-24V32h-16v16c0 4.4-3.6 8-8 8h-32c-13.3 0-24 10.7-24 24zM88 48c0-4.4 3.6-8 8-8h32c13.3 0 24-10.7 24-24V0h-16v16c0 4.4-3.6 8-8 8H96c-13.3 0-24 10.7-24 24v16h16V48zm128 104v16h16v-16c0-4.4 3.6-8 8-8h32c13.3 0 24-10.7 24-24v-16h-16v16c0 4.4-3.6 8-8 8h-32c-13.3 0-24 10.7-24 24zm-40-32v16h16v-16c0-4.4 3.6-8 8-8h32c13.3 0 24-10.7 24-24V72h-16v16c0 4.4-3.6 8-8 8h-32c-13.3 0-24 10.7-24 24zm0 0"/><path d="M472 304h-74.2l-14.2-42.5c-1.1-3.3-4.1-5.5-7.6-5.5h-48c-4.4 0-8 3.6-8 8v40h-18.2l-14.2-42.5c-1.1-3.3-4.1-5.5-7.6-5.5h-16v-64c0-4.4-3.6-8-8-8h-96v-64c0-4.4-3.6-8-8-8H40c-4.4 0-8 3.6-8 8v79.5L.1 438.9c0 .3-.1.7-.1 1.1v32c0 4.4 3.6 8 8 8h464c4.4 0 8-3.6 8-8V312c0-4.4-3.6-8-8-8zM16 440.5L47.9 201c0-.3.1-.7.1-1.1v-72h96v72c0 .4 0 .7.1 1.1L176 440.5V464H16v-23.5zM224 264v200h-32v-24c0-.4 0-.7-.1-1.1L160.1 200H248v56h-16c-4.4 0-8 3.6-8 8zm240 200H240V272h34.2l14.2 42.5c1.1 3.3 4.1 5.5 7.6 5.5h32c4.4 0 8-3.6 8-8v-40h34.2l14.2 42.5c1.1 3.3 4.1 5.5 7.6 5.5h72v144zm0 0"/><path d="M296 336h-32c-4.4 0-8 3.6-8 8v48c0 4.4 3.6 8 8 8h32c4.4 0 8-3.6 8-8v-48c0-4.4-3.6-8-8-8zm-8 48h-16v-32h16v32zm80-48h-32c-4.4 0-8 3.6-8 8v48c0 4.4 3.6 8 8 8h32c4.4 0 8-3.6 8-8v-48c0-4.4-3.6-8-8-8zm-8 48h-16v-32h16v32zm48 16h32c4.4 0 8-3.6 8-8v-48c0-4.4-3.6-8-8-8h-32c-4.4 0-8 3.6-8 8v48c0 4.4 3.6 8 8 8zm8-48h16v32h-16v-32zM280 72h16v16h-16z"/></symbol><symbol viewBox="0 0 496 496" id="marketplaces" xmlns="http://www.w3.org/2000/svg"><path d="M496 119c0-5.8-1.2-11.4-3.5-16.7l-28.5-64V32c0-17.6-14.4-32-32-32H64C46.4 0 32 14.4 32 32v6.3L3.5 102.4C1.2 107.6 0 113.2 0 119c0 19.5 13.7 35.8 32 39.9V352h64v104c0 22.1 17.9 40 40 40h224c22.1 0 40-17.9 40-40V352h64V158.9c18.3-4.1 32-20.4 32-39.9zM64 16h368c8.8 0 16 7.2 16 16H48c0-8.8 7.2-16 16-16zm272 104.6c0 12.9-10.5 23.4-23.4 23.4-10.8 0-20.1-7.3-22.8-17.8L288 119V48h40.8l7.2 72.6zM208 119l-1.8 7.2c-2.6 10.5-12 17.8-22.7 17.8-12.9 0-23.4-10.5-23.5-23.2l7.3-72.8H208v71zm-63.8-1.3l-6.5 13c-4.1 8.2-12.3 13.3-21.5 13.3H112c-13.2 0-24-10.8-24-24h-.2l14.7-72h48.6l-6.9 69.7zM224 48h48v72c0 13.2-10.8 24-24 24s-24-10.8-24-24V48zm127.7 69.5L344.8 48h48.6l14.6 72.7c-.4 12.9-11 23.3-24 23.3h-4.2c-9.2 0-17.4-5.1-21.5-13.3l-6.6-13.2zM16 119c0-3.5.7-6.9 2.2-10.2l27-60.8h41l-14 70.1-1.8 7C67.7 136.2 57.7 144 46.2 144H41c-13.8 0-25-11.2-25-25zm368 146.1L358.4 248l25.6-17.1v34.2zM329.6 248l36 24H130.4l36-24-36-24h235.2l-36 24zM112 230.9l25.6 17.1-25.6 17.1v-34.2zM360 480H136c-13.2 0-24-10.8-24-24V288h272v168c0 13.2-10.8 24-24 24zm40-144V208H96v128H48V159.8c12.8-.6 24.2-6.9 31.4-16.9 7.3 10.3 19.1 17 32.6 17h4.2c13.9 0 26.5-7.1 33.8-18.8 7 11.2 19.3 18.8 33.4 18.8 13.1 0 24.9-6.5 32.2-16.7 7.3 10.1 19 16.7 32.4 16.7s25.1-6.6 32.4-16.7c7.2 10.2 19 16.7 32.2 16.7 14.1 0 26.5-7.5 33.4-18.8 7.3 11.6 19.9 18.8 33.8 18.8h4.2c13.5 0 25.4-6.8 32.6-17 7.2 9.9 18.6 16.3 31.4 16.9V336h-48zm55-192h-5.2c-11.5 0-21.5-7.8-24.3-18.9L409.8 48h41l27 60.8c1.4 3.2 2.2 6.6 2.2 10.2 0 13.8-11.2 25-25 25zm0 0"/><path d="M272 320h16v40c0 22.1-17.9 40-40 40s-40-17.9-40-40v-40h16v-16h-48v16h16v40c0 30.9 25.1 56 56 56s56-25.1 56-56v-40h16v-16h-48v16zm0 0"/></symbol><symbol viewBox="-49 181.1 512 431.8" id="online-stores" xmlns="http://www.w3.org/2000/svg"><path d="M431.5 181.1h-449c-17.4 0-31.5 14.2-31.5 31.5v304.6c0 17.4 14.2 31.5 31.5 31.5h151.8l-6.1 49.1h-25.4c-4.1 0-7.5 3.4-7.5 7.5s3.4 7.5 7.5 7.5h208.4c4.1 0 7.5-3.4 7.5-7.5s-3.4-7.5-7.5-7.5h-25.4l-6.1-49.1h151.8c17.4 0 31.5-14.2 31.5-31.5V212.6c0-17.4-14.2-31.5-31.5-31.5zM270.6 597.9H143.4l6.1-49.1h27.6l2.7 10.8c3.1 12.5 14.3 21.2 27.2 21.2s24.1-8.7 27.2-21.2l2.7-10.8h27.6l6.1 49.1zm-78-49.1h28.9l-1.8 7.2c-1.5 5.8-6.7 9.9-12.6 9.9s-11.2-4.1-12.6-9.9l-1.9-7.2zM448 517.2c0 9.1-7.4 16.5-16.5 16.5h-449c-9.1 0-16.5-7.4-16.5-16.5V212.6c0-9.1 7.4-16.5 16.5-16.5h448.9c9.1 0 16.5 7.4 16.5 16.5l.1 304.6z"/><path d="M6.6 501.7h-8.5V228.1h377.3c4.1 0 7.5-3.4 7.5-7.5s-3.4-7.5-7.5-7.5H-9.4c-4.1 0-7.5 3.4-7.5 7.5v288.6c0 4.1 3.4 7.5 7.5 7.5h16c4.1 0 7.5-3.4 7.5-7.5s-3.4-7.5-7.5-7.5zm416.8-288.6h-16c-4.1 0-7.5 3.4-7.5 7.5s3.4 7.5 7.5 7.5h8.5v273.6H38.7c-4.1 0-7.5 3.4-7.5 7.5s3.4 7.5 7.5 7.5h384.8c4.1 0 7.5-3.4 7.5-7.5V220.6c-.1-4.1-3.4-7.5-7.6-7.5z"/><path d="M156.6 402.3c1.9.5 3.9.7 5.9.7.9 0 1.9-.1 2.8-.2l105.4-12.4c13.6-1.6 24.6-11.7 27.3-25.1l12.6-63c.4-2.1-.1-4.4-1.4-6.1-1.3-1.7-3.4-2.8-5.6-2.9l-176.4-8h-.4c-1-3.4-3.3-6.4-6.2-8.4L99 262.5c-3.4-2.3-8.1-1.4-10.4 2.1s-1.4 8.1 2.1 10.4l21.6 14.4c.1.1.2.2.2.3L140 386c.9 3 2.3 5.7 4.1 8L134 414.1c-2.4 4.8-2.2 10.5.7 15.1 1 1.7 2.3 3.1 3.8 4.2-2 3.4-3.1 7.4-3.1 11.7 0 13 10.6 23.5 23.5 23.5s23.5-10.6 23.5-23.5c0-3-.6-5.9-1.6-8.5h68.4c-1 2.6-1.6 5.5-1.6 8.5 0 13 10.6 23.5 23.5 23.5s23.5-10.6 23.5-23.5c0-3.8-.9-7.3-2.5-10.5 1.5-1.4 2.5-3.3 2.5-5.6 0-4.1-3.4-7.5-7.5-7.5H147.8c-.1 0-.3 0-.4-.2-.2-.2-.1-.4 0-.5l9.2-18.5zm7-14.3c-4.2.5-8-2.1-9.2-6.1l-9.6-33.4h24l6.3 38.2-11.5 1.3zm58.9-7v-32.6h25.7l-2.7 29.9-23 2.7zm0-47.6v-28.7L252 306l-2.5 27.4h-27zm-15 0h-26l-5.1-30.8 31.1 1.4v29.4zm0 15v34.4l-17.5 2.1-6-36.5h23.5zm61.4 27.2l-8.2 1 2.5-28.1H286l-2.8 14c-1.4 6.9-7.1 12.2-14.3 13.1zm20.1-42.2h-24.4l2.4-26.7 27.1 1.2-5.1 25.5zm-127.9-31.5l5.2 31.5h-25.8l-9.4-32.9 30 1.4zm6.3 143.2c0 4.7-3.8 8.5-8.5 8.5s-8.5-3.8-8.5-8.5 3.8-8.5 8.5-8.5 8.5 3.8 8.5 8.5zm103.7 8.5c-4.7 0-8.5-3.8-8.5-8.5s3.8-8.5 8.5-8.5 8.5 3.8 8.5 8.5c.1 4.7-3.8 8.5-8.5 8.5z"/></symbol><symbol viewBox="0 0 233.8 235.9" id="show-more" xmlns="http://www.w3.org/2000/svg"><path d="M25.6 0C11.5 0 0 11.5 0 25.6c0 2.6 2.1 4.8 4.8 4.8 2.6 0 4.8-2.1 4.8-4.8 0-8.8 7.2-16 16-16s16 7.2 16 16-7.2 16-16 16c-2.7 0-4.8 2.1-4.8 4.8 0 2.6 2.1 4.8 4.8 4.8 14.1 0 25.6-11.5 25.6-25.6C51.2 11.5 39.7 0 25.6 0zm91.3 0c-14.1 0-25.6 11.5-25.6 25.6 0 14.1 11.5 25.6 25.6 25.6 14.1 0 25.6-11.5 25.6-25.6C142.5 11.5 131 0 116.9 0zm0 41.6c-8.8 0-16-7.2-16-16s7.2-16 16-16 16 7.2 16 16-7.2 16-16 16zm91.3 9.6c14.1 0 25.6-11.5 25.6-25.6 0-14.1-11.5-25.6-25.6-25.6-14.1 0-25.6 11.5-25.6 25.6 0 14.1 11.4 25.6 25.6 25.6zm0-41.6c8.8 0 16 7.2 16 16s-7.2 16-16 16-16-7.2-16-16 7.1-16 16-16zM25.6 92.3C11.5 92.3 0 103.8 0 117.9c0 14.1 11.5 25.6 25.6 25.6 14.1 0 25.6-11.5 25.6-25.6 0-14.1-11.5-25.6-25.6-25.6zm0 41.6c-8.8 0-16-7.2-16-16s7.2-16 16-16 16 7.2 16 16c0 8.9-7.2 16-16 16zm112.1-20.8c-2.7 0-4.8 2.1-4.8 4.8 0 8.8-7.2 16-16 16s-16-7.2-16-16 7.2-16 16-16c2.6 0 4.8-2.2 4.8-4.8 0-2.7-2.2-4.8-4.8-4.8-14.1 0-25.6 11.5-25.6 25.6 0 14.1 11.5 25.6 25.6 25.6 14.1 0 25.6-11.5 25.6-25.6 0-2.6-2.2-4.8-4.8-4.8zm70.5-20.8c-14.1 0-25.6 11.5-25.6 25.6 0 14.1 11.5 25.6 25.6 25.6 14.1 0 25.6-11.5 25.6-25.6 0-14.1-11.5-25.6-25.6-25.6zm0 41.6c-8.8 0-16-7.2-16-16s7.2-16 16-16 16 7.2 16 16c0 8.9-7.2 16-16 16zM25.6 184.7C11.5 184.7 0 196.2 0 210.3c0 14.1 11.5 25.6 25.6 25.6 14.1 0 25.6-11.5 25.6-25.6 0-14.1-11.5-25.6-25.6-25.6zm0 41.6c-8.8 0-16-7.2-16-16s7.2-16 16-16 16 7.2 16 16-7.2 16-16 16zm91.3-41.6c-14.1 0-25.6 11.5-25.6 25.6 0 14.1 11.5 25.6 25.6 25.6 14.1 0 25.6-11.5 25.6-25.6 0-14.1-11.5-25.6-25.6-25.6zm0 41.6c-8.8 0-16-7.2-16-16s7.2-16 16-16 16 7.2 16 16-7.2 16-16 16zm91.3-41.6c-14.1 0-25.6 11.5-25.6 25.6 0 14.1 11.5 25.6 25.6 25.6 14.1 0 25.6-11.5 25.6-25.6 0-14.1-11.5-25.6-25.6-25.6zm0 41.6c-8.8 0-16-7.2-16-16s7.2-16 16-16 16 7.2 16 16-7.2 16-16 16zm0 0"/></symbol></svg>